<svg width="55" height="73" viewBox="0 0 55 73" fill="none" xmlns="http://www.w3.org/2000/svg">
<path d="M49.9877 25.739L33 31.4266V56.4178C32.9989 60.1155 31.7688 63.7067 29.5051 66.6212C27.2414 69.5356 24.0739 71.6061 20.5057 72.5038C16.9375 73.4014 13.1732 73.0748 9.81082 71.5758C6.44842 70.0767 3.68068 67.4912 1.94723 64.2299C0.21378 60.9687 -0.385976 57.2186 0.243227 53.5755C0.872429 49.9323 2.69451 46.605 5.42005 44.1219C8.14559 41.6389 11.6183 40.1426 15.2866 39.8707C18.9548 39.5987 22.6083 40.5668 25.6667 42.621V15.6577C25.6666 13.337 26.3929 11.0751 27.7426 9.19234C29.0923 7.30958 30.997 5.90142 33.187 5.1673L47.762 0.283313C48.5887 0.0065183 49.469 -0.0688663 50.3303 0.0633676C51.1916 0.195601 52.0094 0.53167 52.7162 1.04389C53.4231 1.55611 53.9987 2.22982 54.3958 3.00952C54.7928 3.78922 54.9999 4.6526 55 5.52853V18.7429C55.0006 20.2904 54.5169 21.7987 53.6173 23.0544C52.7177 24.31 51.4478 25.2493 49.9877 25.739Z" fill="white"/>
</svg>
