<svg width="109" height="109" viewBox="0 0 109 109" fill="none" xmlns="http://www.w3.org/2000/svg">
<path d="M46.2679 7.83414C46.9559 9.78093 46.8426 11.9213 45.953 13.7846C45.0633 15.6479 43.4701 17.0814 41.5238 17.7701C34.7957 20.1491 28.8509 24.3321 24.3392 29.8618C19.8274 35.3915 16.9222 42.0552 15.9411 49.1246C14.96 56.194 15.9407 63.3971 18.7761 69.9468C21.6115 76.4964 26.1925 82.1405 32.0184 86.2623C37.8442 90.3841 44.6909 92.825 51.81 93.3182C58.9292 93.8113 66.0469 92.3379 72.3853 89.0587C78.7238 85.7796 84.039 80.8211 87.7502 74.7249C91.4614 68.6288 93.4257 61.6297 93.4285 54.4925C93.4285 48.2631 91.9752 42.3971 89.3852 37.1955C88.9298 36.2796 88.6593 35.283 88.5891 34.2626C88.5189 33.2421 88.6503 32.2178 88.9759 31.2482C89.6334 29.2899 91.0419 27.6731 92.8913 26.7534C94.7408 25.8337 96.8798 25.6865 98.8378 26.3441C100.796 27.0017 102.412 28.4104 103.332 30.2601C107.071 37.79 109.011 46.0852 109 54.4925C109 84.5962 84.5995 109 54.5 109C24.4004 109 0 84.5962 0 54.4925C0 30.748 15.1769 10.5699 36.3333 3.08939C38.2798 2.40129 40.4199 2.51458 42.2829 3.40436C44.146 4.29413 45.5794 5.88753 46.2679 7.83414ZM57.0952 7.84452C57.0943 6.66012 57.3618 5.49092 57.8776 4.42475C58.3933 3.35859 59.144 2.42317 60.0731 1.68878C61.0022 0.954386 62.0856 0.440113 63.242 0.184592C64.3983 -0.0709284 65.5975 -0.0610528 66.7495 0.213477L67.4139 0.405551L82.9126 5.57597C84.8103 6.20844 86.3918 7.54715 87.3292 9.31447C88.2665 11.0818 88.4878 13.1421 87.9471 15.0682C87.4064 16.9943 86.1452 18.6384 84.4251 19.6595C82.705 20.6806 80.6579 21.0004 78.7083 20.5525L77.9921 20.3501L72.6666 18.5747V54.4925L72.6407 55.4892C72.4418 59.1089 71.1648 62.5864 68.9739 65.4744C66.7831 68.3624 63.7785 70.5289 60.3466 71.6953C56.9147 72.8617 53.2123 72.9747 49.7157 72.0197C46.2191 71.0647 43.088 69.0854 40.7252 66.3364C38.3623 63.5873 36.8758 60.1942 36.4566 56.5934C36.0375 52.9925 36.7049 49.3486 38.3731 46.1302C40.0413 42.9118 42.634 40.2661 45.8177 38.5333C49.0015 36.8004 52.6307 36.0597 56.2388 36.4064L57.0952 36.5103V7.84452Z" fill="#1FDF64"/>
</svg>
